<?xml version="1.0" encoding="utf-8"?>
<!-- Generator: Adobe Illustrator 23.0.3, SVG Export Plug-In . SVG Version: 6.00 Build 0)  -->
<svg version="1.1" id="レイヤー_1" xmlns="http://www.w3.org/2000/svg" xmlns:xlink="http://www.w3.org/1999/xlink" x="0px"
	 y="0px" viewBox="0 0 360 148" style="enable-background:new 0 0 360 148;" xml:space="preserve">
<style type="text/css">
	.st0{fill:#0098D8;}
	.st1{fill:#231815;}
</style>
<title>neo career</title>
<g id="layer1">
	<path class="st0" d="M50.5,74.5c-8.3,0-13.8,5.1-13.8,13.3v12.3c0,8.2,5.5,13.3,13.8,13.3c8.1,0,12.7-3.9,13.6-10.6
		c0.2-0.7-0.3-1.5-1.1-1.6c-0.1-0.1-0.3-0.1-0.4-0.1h-5.2c-1,0-1.9,0.7-2.1,1.7c-0.5,2.1-2,3.6-4.9,3.6s-5.1-1.6-5.1-5.4v-5h17.3
		c0.9,0,1.7-0.7,1.7-1.6v-0.1v-7.1C64.3,79.6,58.6,74.5,50.5,74.5z M55.5,89H45.4v-2.1c0-3.3,1.6-5.4,5.1-5.4s5.1,2.1,5.1,5.4
		C55.5,86.9,55.5,89,55.5,89z M87.1,74.5c-8.7,0-13.8,4.2-13.8,14.2v10.5c0,9.9,5.1,14.2,13.8,14.2s13.8-4.2,13.8-14.2V88.7
		C101,78.8,95.8,74.5,87.1,74.5z M92.2,101.4c0,2.9-2.1,4.4-5.1,4.4s-5.1-1.5-5.1-4.4V86.5c0-2.9,2.1-4.4,5.1-4.4s5.1,1.5,5.1,4.4
		V101.4z M17.9,74.6c-3.7,0-6.7,1.5-9.4,3.9V77l-0.1-0.1c0-0.9-0.7-1.7-1.6-1.7h0h-5c-0.9,0-1.7,0.7-1.7,1.6v0.1v34.2
		c0,0.9,0.7,1.7,1.6,1.7h0.1h5.3c0.9,0,1.7-0.7,1.7-1.6v-0.1V87.2c0-3.3,1.9-5.5,5.1-5.5s5.1,2.2,5.1,5.5v23.9
		c0.1,1,0.8,1.8,1.8,1.8H26c0.9,0,1.7-0.7,1.7-1.6v-0.1V84.9C27.7,77.8,23.2,74.6,17.9,74.6z"/>
	<path class="st1" d="M221.8,74.5c-8.3,0-13.8,5.1-13.8,13.3v12.3c0,8.2,5.5,13.3,13.8,13.3c8.1,0,12.7-3.9,13.6-10.6
		c0.2-0.7-0.3-1.5-1.1-1.6c-0.1-0.1-0.3-0.1-0.4-0.1h-5.2c-1,0-1.9,0.7-2.1,1.7c-0.5,2.1-2,3.6-4.9,3.6s-5.1-1.6-5.1-5.4v-5h17.3
		c0.9,0,1.7-0.7,1.7-1.6v-0.1v-7.1C235.5,79.6,229.8,74.5,221.8,74.5z M226.8,89h-10.2v-2.1h0.1c0-3.3,1.6-5.4,5.1-5.4
		s5.1,2.1,5.1,5.4L226.8,89L226.8,89z M258.2,74.5c-8.3,0-13.8,5.1-13.8,13.3v12.3c0,8.2,5.5,13.3,13.8,13.3
		c8.1,0,12.7-3.9,13.6-10.6c0.2-0.7-0.3-1.5-1.1-1.6c-0.1-0.1-0.3-0.1-0.4-0.1h-5.2c-1,0-1.9,0.7-2.1,1.7c-0.5,2.1-2,3.6-4.9,3.6
		s-5.1-1.6-5.1-5.4v-5h17.3c0.9,0,1.7-0.7,1.7-1.6v-0.1v-7.1C272.1,79.6,266.3,74.5,258.2,74.5z M263.3,89h-10.2v-2.1h0.1
		c0-3.3,1.6-5.4,5.1-5.4c3.5,0,5.1,2.1,5.1,5.4L263.3,89L263.3,89z M135.9,99.1h-5.3c-1-0.1-1.8,0.7-1.9,1.6l0,0v0.7
		c0,2.9-2.1,4.4-5.1,4.4s-5.1-1.5-5.1-4.4V86.5c0-2.9,2.1-4.4,5.1-4.4s5.1,1.5,5.1,4.4c0.1,1,0.8,1.7,1.8,1.6h0.1h5.2
		c1.2,0,1.5-0.8,1.5-1.8c-0.7-8.3-5.7-11.9-13.7-11.9c-8.7,0-13.8,4.3-13.8,14.2v10.5c0,10,5.1,14.2,13.8,14.2
		c8.2,0,13.2-3.8,13.8-12.6C137.5,99.9,137.1,99.1,135.9,99.1L135.9,99.1z M199.4,74.6c-3.3,0.5-5.5,2.3-7.3,5.6H192V77
		c0-0.9-0.7-1.7-1.6-1.7h-0.1h-5.1c-0.9,0-1.7,0.7-1.7,1.6V77v34.2c0,0.9,0.7,1.7,1.6,1.7h0.1h5.3c0.9,0,1.7-0.7,1.7-1.6v-0.1v-24
		c-0.1-2.2,1.7-4.1,4-4.1c0.1,0,0.2,0,0.3,0c0.9,0,1.8,0.2,2.6,0.4c0.1,0.1,0.2,0.1,0.2,0.1c0.6,0.3,1.4-0.1,1.6-0.7
		c0.1-0.2,0.1-0.3,0.1-0.5v-6.2c0.1-0.7-0.4-1.4-1.2-1.5C199.6,74.5,199.5,74.5,199.4,74.6L199.4,74.6z M298.4,74.6
		c-3.3,0.5-5.5,2.3-7.3,5.6H291V77c0-0.9-0.7-1.7-1.6-1.7h-0.1h-5.1c-0.9,0-1.7,0.7-1.7,1.6V77v34.2c0,0.9,0.7,1.7,1.6,1.7h0.1h5.3
		c0.9,0,1.7-0.7,1.7-1.6v-0.1v-24c-0.1-2.2,1.7-4.1,4-4.1c0.1,0,0.2,0,0.3,0c0.9,0,1.8,0.2,2.6,0.4c0.1,0.1,0.2,0.1,0.2,0.1
		c0.6,0.3,1.4-0.1,1.6-0.7c0.1-0.2,0.1-0.3,0.1-0.5v-6.2c0.1-0.8-0.5-1.5-1.2-1.5C298.6,74.5,298.5,74.6,298.4,74.6z M173.1,100.1
		V85.9c0-6.7-3.5-11.4-12.8-11.4c-6.5,0-12.4,2.9-13.7,9.9c-0.1,0.9,0.3,1.8,1.5,1.8h5c1.1,0.1,2.1-0.6,2.3-1.7c0.7-1.9,2.5-3,4.5-3
		c2.5,0,4.5,1.3,4.5,4.5v2.1l-11.4,4c-5.5,2-7.3,6-7.3,9.8c0,7.5,5,11.6,13.7,11.6s13.7-4,13.7-11.6H173v-1.8H173.1z M164.4,101.9
		c0,3-2,4.8-5,4.8s-5-1.8-5-4.8c-0.1-2.1,1.3-4,3.4-4.7c1.8-0.6,6.6-2.3,6.6-2.3V101.9z"/>
	<path class="st0" d="M309.4,71.4c-0.8,0-1.5-0.3-2.1-0.9c-1.2-1.2-1.2-3.1,0-4.2L318.6,55c0.6-0.6,1.3-0.9,2.1-0.9h29.1
		c2.4,0,4.3-1.9,4.3-4.2c0,0,0,0,0-0.1V10.3c0-2.4-1.9-4.3-4.2-4.3c0,0,0,0-0.1,0h-75.5c-2.4,0-4.3,1.9-4.3,4.2c0,0,0,0,0,0.1v39.5
		c0,2.4,1.9,4.3,4.2,4.3c0,0,0,0,0.1,0h29.1c1.6,0,3,1.4,3,3s-1.4,3-3,3l0,0h-29.1c-5.7,0-10.3-4.6-10.3-10.3V10.3
		C264,4.6,268.6,0,274.3,0h75.4c5.7,0,10.3,4.6,10.3,10.3v39.5c0,5.7-4.6,10.3-10.3,10.3h-27.8l-10.4,10.5
		C311,71.1,310.2,71.4,309.4,71.4z"/>
	<path class="st1" d="M105.8,139.2h5c0,0.7-0.1,1.5-0.4,2.2c-0.4,1.3-1.4,2.2-2.6,2.7c-0.7,0.2-1.5,0.3-2.2,0.3
		c-0.9,0.1-1.8-0.2-2.6-0.6c-0.7-0.4-1.3-1-1.7-1.6c-0.5-0.7-0.8-1.5-1-2.3s-0.3-1.8-0.3-2.7s0.1-1.8,0.3-2.7c0.2-0.8,0.5-1.6,1-2.3
		c0.4-0.7,1.1-1.3,1.7-1.6c0.8-0.4,1.7-0.6,2.6-0.6c0.6,0,1.2,0.1,1.7,0.2s1,0.4,1.5,0.7s0.8,0.7,1.1,1.2c0.3,0.5,0.5,1.1,0.6,1.6
		h3.2c-0.1-1-0.4-2-0.9-2.8s-1.1-1.5-1.8-2c-0.7-0.5-1.5-1-2.4-1.2c-1-0.3-1.9-0.4-2.9-0.4c-1.3,0-2.6,0.3-3.8,0.8
		c-1.1,0.5-2,1.2-2.8,2.1c-0.7,1-1.3,2-1.7,3.1c-0.8,2.4-0.8,5.1,0,7.6c0.4,1.2,1,2.2,1.7,3.1c0.7,0.9,1.7,1.6,2.8,2.1
		c1.2,0.5,2.4,0.8,3.8,0.8c1.1,0,2.1-0.2,3-0.6c1-0.5,1.9-1.2,2.6-2.1l0.5,2.2h2.1v-9.8h-8L105.8,139.2L105.8,139.2z M136,141.6
		c0-0.6-0.1-1.3-0.3-1.9c-0.2-0.4-0.4-0.8-0.7-1.2c-0.3-0.3-0.5-0.5-0.9-0.7c-0.3-0.1-0.6-0.2-0.9-0.3v-0.1c0.3-0.1,0.5-0.2,0.7-0.3
		c0.4-0.2,0.7-0.5,1.1-0.8c0.4-0.4,0.7-0.9,0.9-1.4c0.3-0.7,0.4-1.5,0.4-2.2c0.1-1.4-0.5-2.8-1.5-3.7c-1.1-0.9-2.6-1.3-4.7-1.3h-8.9
		v18.9h3.3v-7.7h4.8c0.6-0.1,1.3,0.1,1.9,0.3c0.5,0.2,0.9,0.5,1.2,0.9c0.3,0.5,0.5,1,0.6,1.5c0.1,0.7,0.2,1.5,0.2,2.2
		c0,0.5,0,1,0.1,1.4s0.2,0.9,0.4,1.3h3.5c-0.4-0.5-0.7-1.2-0.8-1.9C136.1,143.6,136,142.6,136,141.6z M132.2,135.6
		c-0.7,0.5-1.5,0.8-2.4,0.7h-5.4v-5.9h5.3c0.4,0,0.8,0.1,1.2,0.1c0.4,0.1,0.7,0.2,1.1,0.4c0.3,0.2,0.6,0.5,0.7,0.9
		c0.2,0.5,0.3,1,0.3,1.5C133.1,134.2,132.8,135,132.2,135.6L132.2,135.6z M157.2,130.2c-0.7-0.9-1.7-1.6-2.8-2.1
		c-1.2-0.5-2.4-0.8-3.8-0.8c-2.5-0.1-4.9,1-6.6,2.9c-0.7,1-1.3,2-1.7,3.1c-0.8,2.4-0.8,5.1,0,7.6c0.4,1.2,1,2.2,1.7,3.1
		c0.7,0.9,1.7,1.6,2.8,2.1c2.4,1.1,5.1,1.1,7.5,0c1.1-0.5,2-1.2,2.8-2.1c0.7-0.9,1.4-2,1.7-3.1c0.4-1.2,0.6-2.5,0.6-3.8
		s-0.2-2.5-0.6-3.8C158.6,132.2,158,131.1,157.2,130.2L157.2,130.2z M156,139.8c-0.2,0.8-0.5,1.6-1,2.3c-0.4,0.7-1.1,1.3-1.7,1.6
		c-0.8,0.4-1.7,0.6-2.6,0.6c-0.9,0.1-1.8-0.2-2.6-0.6c-0.7-0.4-1.3-1-1.7-1.6c-0.5-0.7-0.8-1.5-1-2.3s-0.3-1.8-0.3-2.7
		s0.1-1.8,0.3-2.7c0.2-0.8,0.5-1.6,1-2.3c0.4-0.7,1.1-1.3,1.7-1.6c0.8-0.4,1.7-0.6,2.6-0.6c0.9-0.1,1.8,0.2,2.6,0.6
		c0.7,0.4,1.3,1,1.7,1.6c0.5,0.7,0.8,1.5,1,2.3s0.3,1.8,0.3,2.7C156.3,138.1,156.2,139,156,139.8z M178.3,138.7
		c0,0.6-0.1,1.3-0.1,1.9c-0.1,0.6-0.3,1.2-0.5,1.8c-0.3,0.5-0.8,1-1.3,1.3c-1.6,0.6-3.4,0.6-5,0c-0.6-0.3-1-0.7-1.3-1.3
		c-0.3-0.5-0.5-1.1-0.5-1.8s-0.1-1.3-0.1-1.9v-10.9h-3.3v12c-0.1,1.1,0.2,2.2,0.5,3.2c0.4,0.8,0.9,1.6,1.6,2.2
		c0.7,0.6,1.5,1.1,2.4,1.4c1.1,0.3,2.1,0.4,3.2,0.4c1.1,0.1,2.2-0.1,3.2-0.4c0.9-0.3,1.7-0.7,2.4-1.4c0.7-0.6,1.3-1.4,1.6-2.2
		c0.4-1,0.6-2.1,0.5-3.2v-12h-3.3L178.3,138.7z M203.3,131.7c-0.2-0.7-0.5-1.3-1-1.9c-0.5-0.6-1.2-1.1-2-1.4
		c-1.1-0.4-2.2-0.6-3.3-0.6h-8.3v18.8h3.3v-7.2h5c1.1,0.1,2.2-0.2,3.3-0.6c0.7-0.3,1.4-0.8,2-1.4c0.5-0.5,0.8-1.2,1-1.9
		c0.2-0.6,0.3-1.2,0.3-1.9C203.6,132.9,203.5,132.3,203.3,131.7z M200,135c-0.2,0.4-0.5,0.7-0.8,1s-0.7,0.4-1.1,0.5
		c-0.4,0.1-0.7,0.2-1.1,0.2h-4.8v-6.2h4.9c0.4,0,0.8,0,1.2,0.1s0.7,0.3,1,0.5c0.3,0.3,0.5,0.6,0.7,1c0.2,0.5,0.3,1,0.3,1.5
		C200.3,134,200.2,134.5,200,135z"/>
</g>
</svg>
